<svg width="51" height="43" viewBox="0 0 51 43" fill="none" xmlns="http://www.w3.org/2000/svg">
<path d="M10.811 43C9.79846 43 8.89846 42.6906 8.11096 42.0719C7.32346 41.4531 6.77971 40.6562 6.47971 39.6812L0.74221 18.8687C0.55471 18.1562 0.676585 17.5 1.10783 16.9C1.53908 16.3 2.12971 16 2.87971 16H13.5672L23.4672 1.2625C23.6547 0.9625 23.9172 0.71875 24.2547 0.53125C24.5922 0.34375 24.9485 0.25 25.3235 0.25C25.6985 0.25 26.0547 0.34375 26.3922 0.53125C26.7297 0.71875 26.9922 0.9625 27.1797 1.2625L37.0797 16H47.8797C48.6297 16 49.2203 16.3 49.6516 16.9C50.0828 17.5 50.2047 18.1562 50.0172 18.8687L44.2797 39.6812C43.9797 40.6562 43.436 41.4531 42.6485 42.0719C41.861 42.6906 40.961 43 39.9485 43H10.811ZM10.7547 38.5H40.0047L44.9547 20.5H5.80471L10.7547 38.5ZM25.3797 34C26.6172 34 27.6766 33.5594 28.5578 32.6781C29.4391 31.7969 29.8797 30.7375 29.8797 29.5C29.8797 28.2625 29.4391 27.2031 28.5578 26.3219C27.6766 25.4406 26.6172 25 25.3797 25C24.1422 25 23.0828 25.4406 22.2016 26.3219C21.3203 27.2031 20.8797 28.2625 20.8797 29.5C20.8797 30.7375 21.3203 31.7969 22.2016 32.6781C23.0828 33.5594 24.1422 34 25.3797 34ZM19.0235 16H31.6797L25.3235 6.55L19.0235 16Z" fill="#FBB8AF"/>
</svg>
